<svg width="2247" height="3796" xmlns="http://www.w3.org/2000/svg" xmlns:xlink="http://www.w3.org/1999/xlink" xml:space="preserve" overflow="hidden"><defs><clipPath id="clip0"><rect x="1053" y="-427" width="2247" height="3796"/></clipPath></defs><g clip-path="url(#clip0)" transform="translate(-1053 427)"><rect x="1053" y="-427" width="2244" height="3796" fill="#FFFFFF"/><path d="M1297.5-138.165C1297.5-176.458 1328.54-207.5 1366.84-207.5L2525.17-207.5C2563.46-207.5 2594.5-176.458 2594.5-138.165L2594.5 139.165C2594.5 177.458 2563.46 208.5 2525.17 208.5L1366.84 208.5C1328.54 208.5 1297.5 177.458 1297.5 139.165Z" stroke="#042433" stroke-width="6.875" stroke-miterlimit="8" fill="#D9F2D0" fill-rule="evenodd"/><text font-family="FangSong,FangSong_MSFontService,sans-serif" font-weight="700" font-size="83" transform="matrix(1 0 0 1 1695.27 -12)">Planner </text><text font-family="FangSong,FangSong_MSFontService,sans-serif" font-weight="700" font-size="83" transform="matrix(1 0 0 1 2029.85 -12)">规划</text><text font-family="FangSong,FangSong_MSFontService,sans-serif" font-weight="400" font-size="64" transform="matrix(1 0 0 1 1592.71 112)">设计组件，确立连接关系</text><path d="M1297.5 496.835C1297.5 458.543 1328.54 427.5 1366.84 427.5L2525.17 427.5C2563.46 427.5 2594.5 458.543 2594.5 496.835L2594.5 774.166C2594.5 812.459 2563.46 843.501 2525.17 843.501L1366.84 843.501C1328.54 843.501 1297.5 812.459 1297.5 774.166Z" stroke="#042433" stroke-width="6.875" stroke-miterlimit="8" fill="#CAEEFB" fill-rule="evenodd"/><text font-family="FangSong,FangSong_MSFontService,sans-serif" font-weight="700" font-size="83" transform="matrix(1 0 0 1 1695.27 623)">API</text><text font-family="FangSong,FangSong_MSFontService,sans-serif" font-weight="700" font-size="83" transform="matrix(1 0 0 1 1820.73 623)">-</text><text font-family="FangSong,FangSong_MSFontService,sans-serif" font-weight="700" font-size="83" transform="matrix(1 0 0 1 1862.56 623)">RAG </text><text font-family="FangSong,FangSong_MSFontService,sans-serif" font-weight="700" font-size="83" transform="matrix(1 0 0 1 2029.85 623)">检索</text><text font-family="FangSong,FangSong_MSFontService,sans-serif" font-weight="400" font-size="64" transform="matrix(1 0 0 1 1672.92 747)">检索</text><text font-family="FangSong,FangSong_MSFontService,sans-serif" font-weight="400" font-size="64" transform="matrix(1 0 0 1 1833.34 747)">bpy</text><text font-family="FangSong,FangSong_MSFontService,sans-serif" font-weight="400" font-size="64" transform="matrix(1 0 0 1 1961.67 747)">API </text><text font-family="FangSong,FangSong_MSFontService,sans-serif" font-weight="400" font-size="64" transform="matrix(1 0 0 1 2090.01 747)">文档</text><path d="M1297.5 1131.84C1297.5 1093.54 1328.54 1062.5 1366.84 1062.5L2525.17 1062.5C2563.46 1062.5 2594.5 1093.54 2594.5 1131.84L2594.5 1409.17C2594.5 1447.46 2563.46 1478.5 2525.17 1478.5L1366.84 1478.5C1328.54 1478.5 1297.5 1447.46 1297.5 1409.17Z" stroke="#042433" stroke-width="6.875" stroke-miterlimit="8" fill="#CCFF99" fill-rule="evenodd"/><text font-family="FangSong,FangSong_MSFontService,sans-serif" font-weight="700" font-size="83" transform="matrix(1 0 0 1 1737.09 1258)">Coder </text><text font-family="FangSong,FangSong_MSFontService,sans-serif" font-weight="700" font-size="83" transform="matrix(1 0 0 1 1988.03 1258)">设计</text><text font-family="FangSong,FangSong_MSFontService,sans-serif" font-weight="400" font-size="64" transform="matrix(1 0 0 1 1737.09 1382)">生成</text><text font-family="FangSong,FangSong_MSFontService,sans-serif" font-weight="400" font-size="64" transform="matrix(1 0 0 1 1897.51 1382)">bpy</text><text font-family="FangSong,FangSong_MSFontService,sans-serif" font-weight="400" font-size="64" transform="matrix(1 0 0 1 2025.84 1382)">代码</text><path d="M1297.5 1766.84C1297.5 1728.54 1328.54 1697.5 1366.84 1697.5L2525.17 1697.5C2563.46 1697.5 2594.5 1728.54 2594.5 1766.84L2594.5 2044.17C2594.5 2082.46 2563.46 2113.5 2525.17 2113.5L1366.84 2113.5C1328.54 2113.5 1297.5 2082.46 1297.5 2044.17Z" stroke="#042433" stroke-width="6.875" stroke-miterlimit="8" fill="#96DCF8" fill-rule="evenodd"/><text font-family="FangSong,FangSong_MSFontService,sans-serif" font-weight="700" font-size="83" transform="matrix(1 0 0 1 1716.17 1893)">Critic </text><text font-family="FangSong,FangSong_MSFontService,sans-serif" font-weight="700" font-size="83" transform="matrix(1 0 0 1 2008.93 1893)">批判</text><text font-family="FangSong,FangSong_MSFontService,sans-serif" font-weight="400" font-size="64" transform="matrix(1 0 0 1 1608.76 2017)">几何验证器</text><text font-family="FangSong,FangSong_MSFontService,sans-serif" font-weight="400" font-size="64" transform="matrix(1 0 0 1 1961.67 2017)">+ </text><text font-family="FangSong,FangSong_MSFontService,sans-serif" font-weight="400" font-size="64" transform="matrix(1 0 0 1 2025.84 2017)">视觉模型</text><path d="M1297.5 2401.83C1297.5 2363.54 1328.54 2332.5 1366.84 2332.5L2525.17 2332.5C2563.46 2332.5 2594.5 2363.54 2594.5 2401.83L2594.5 2679.17C2594.5 2717.46 2563.46 2748.5 2525.17 2748.5L1366.84 2748.5C1328.54 2748.5 1297.5 2717.46 1297.5 2679.17Z" stroke="#042433" stroke-width="6.875" stroke-miterlimit="8" fill="#F6C6AD" fill-rule="evenodd"/><text font-family="FangSong,FangSong_MSFontService,sans-serif" font-weight="700" font-size="83" transform="matrix(1 0 0 1 1737.09 2528)">Fixer </text><text font-family="FangSong,FangSong_MSFontService,sans-serif" font-weight="700" font-size="83" transform="matrix(1 0 0 1 1988.03 2528)">修复</text><text font-family="FangSong,FangSong_MSFontService,sans-serif" font-weight="400" font-size="64" transform="matrix(1 0 0 1 1384.17 2652)">根据用户或</text><text font-family="FangSong,FangSong_MSFontService,sans-serif" font-weight="400" font-size="64" transform="matrix(1 0 0 1 1737.09 2652)">Critic </text><text font-family="FangSong,FangSong_MSFontService,sans-serif" font-weight="400" font-size="64" transform="matrix(1 0 0 1 1961.67 2652)">反馈修改</text><text font-family="FangSong,FangSong_MSFontService,sans-serif" font-weight="400" font-size="64" transform="matrix(1 0 0 1 2250.42 2652)">bpy</text><text font-family="FangSong,FangSong_MSFontService,sans-serif" font-weight="400" font-size="64" transform="matrix(1 0 0 1 2378.76 2652)">代码</text><path d="M1949.94-426.5 1949.94-230.065 1943.06-230.065 1943.06-426.5ZM1960.25-234.648 1946.5-207.148 1932.75-234.648Z"/><text font-family="KaiTi,KaiTi_MSFontService,sans-serif" font-weight="400" font-size="64" transform="matrix(1 0 0 1 2007.88 -291)">“做一张明式官椅”</text><path d="M3.4375-1.13112e-05 3.43815 196.436-3.43685 196.436-3.4375 1.13112e-05ZM13.7506 191.852 0.000721785 219.352-13.7494 191.852Z" transform="matrix(-1 0 0 1 1946.5 208.5)"/><path d="M1949.94 843.5 1949.94 1039.94 1943.06 1039.94 1943.06 843.5ZM1960.25 1035.35 1946.5 1062.85 1932.75 1035.35Z"/><path d="M1949.94 1478.5 1949.94 1674.94 1943.06 1674.94 1943.06 1478.5ZM1960.25 1670.35 1946.5 1697.85 1932.75 1670.35Z"/><path d="M1949.94 2113.5 1949.94 2309.94 1943.06 2309.94 1943.06 2113.5ZM1960.25 2305.35 1946.5 2332.85 1932.75 2305.35Z"/><path d="M1949.94 2748.5 1949.94 2980.9 1943.06 2980.9 1943.06 2748.5ZM1960.25 2976.32 1946.5 3003.82 1932.75 2976.32Z"/><text font-family="Cascadia Code,Cascadia Code_MSFontService,sans-serif" font-weight="400" font-size="64" transform="matrix(1 0 0 1 2007.88 328)">.jasonl</text><text font-family="Cascadia Code,Cascadia Code_MSFontService,sans-serif" font-weight="400" font-size="64" transform="matrix(1 0 0 1 2272.57 328)"> </text><text font-family="KaiTi,KaiTi_MSFontService,sans-serif" font-weight="400" font-size="64" transform="matrix(1 0 0 1 2016.91 976)">相关</text><text font-family="Cascadia Code,Cascadia Code_MSFontService,sans-serif" font-weight="400" font-size="64" transform="matrix(1 0 0 1 2177.32 976)">API</text><text font-family="KaiTi,KaiTi_MSFontService,sans-serif" font-weight="400" font-size="64" transform="matrix(1 0 0 1 2322.85 976)">用法</text><text font-family="KaiTi,KaiTi_MSFontService,sans-serif" font-weight="400" font-size="64" transform="matrix(1 0 0 1 2007.88 1604)">代码</text><text font-family="KaiTi,KaiTi_MSFontService,sans-serif" font-weight="400" font-size="64" transform="matrix(1 0 0 1 2168.3 1604)">+ </text><text font-family="KaiTi,KaiTi_MSFontService,sans-serif" font-weight="400" font-size="64" transform="matrix(1 0 0 1 2232.47 1604)">四视图</text><text font-family="KaiTi,KaiTi_MSFontService,sans-serif" font-weight="400" font-size="64" transform="matrix(1 0 0 1 2023.3 2250)">生成修改意见</text><path d="M0-3.4375 85.9375-3.4375 85.9375 638.504 27.5 638.504 27.5 631.629 82.5 631.629 79.0625 635.066 79.0625 0 82.5 3.4375 0 3.4375ZM32.0833 648.816 4.58333 635.066 32.0833 621.316Z" fill="#156082" transform="matrix(1 0 0 -1 2594.5 2540.57)"/><text font-family="KaiTi,KaiTi_MSFontService,sans-serif" font-weight="400" font-size="64" transform="matrix(1 0 0 1 2812.15 2133)">根据用户需求</text><text font-family="KaiTi,KaiTi_MSFontService,sans-serif" font-weight="400" font-size="64" transform="matrix(1 0 0 1 2747.99 2248)">进行多轮评审修改</text><text font-family="KaiTi,KaiTi_MSFontService,sans-serif" font-weight="400" font-size="64" transform="matrix(1 0 0 1 1977.5 2903)">一张明式官椅</text></g></svg>